<mxfile host="app.diagrams.net" modified="2024-04-20T20:18:50.075Z" agent="Mozilla/5.0 (Windows NT 10.0; Win64; x64) AppleWebKit/537.36 (KHTML, like Gecko) Chrome/124.0.0.0 Safari/537.36" etag="UzTIEj-SA0LB5LlMfTKZ" version="24.2.7" type="github">
  <diagram name="Page-1" id="V7zYzeOInBJdSE_sZk6k">
    <mxGraphModel dx="2759" dy="2064" grid="1" gridSize="10" guides="1" tooltips="1" connect="1" arrows="1" fold="1" page="1" pageScale="1" pageWidth="850" pageHeight="1100" math="0" shadow="0">
      <root>
        <mxCell id="0" />
        <mxCell id="1" parent="0" />
        <mxCell id="E6fFzOeGJ7w1-EUEKwYV-89" style="edgeStyle=orthogonalEdgeStyle;rounded=0;orthogonalLoop=1;jettySize=auto;html=1;entryX=0;entryY=0.5;entryDx=0;entryDy=0;" edge="1" parent="1" source="E6fFzOeGJ7w1-EUEKwYV-1" target="E6fFzOeGJ7w1-EUEKwYV-87">
          <mxGeometry relative="1" as="geometry" />
        </mxCell>
        <mxCell id="E6fFzOeGJ7w1-EUEKwYV-1" value="UI transfer" style="rounded=0;whiteSpace=wrap;html=1;" vertex="1" parent="1">
          <mxGeometry y="130" width="120" height="60" as="geometry" />
        </mxCell>
        <mxCell id="E6fFzOeGJ7w1-EUEKwYV-93" value="" style="edgeStyle=orthogonalEdgeStyle;rounded=0;orthogonalLoop=1;jettySize=auto;html=1;" edge="1" parent="1" source="E6fFzOeGJ7w1-EUEKwYV-2" target="E6fFzOeGJ7w1-EUEKwYV-88">
          <mxGeometry relative="1" as="geometry" />
        </mxCell>
        <mxCell id="E6fFzOeGJ7w1-EUEKwYV-2" value="UI to view transactions" style="rounded=0;whiteSpace=wrap;html=1;" vertex="1" parent="1">
          <mxGeometry x="-10" y="390" width="120" height="60" as="geometry" />
        </mxCell>
        <mxCell id="E6fFzOeGJ7w1-EUEKwYV-15" style="edgeStyle=orthogonalEdgeStyle;rounded=0;orthogonalLoop=1;jettySize=auto;html=1;" edge="1" parent="1" source="E6fFzOeGJ7w1-EUEKwYV-3">
          <mxGeometry relative="1" as="geometry">
            <mxPoint x="480" y="160" as="targetPoint" />
          </mxGeometry>
        </mxCell>
        <mxCell id="E6fFzOeGJ7w1-EUEKwYV-19" value="" style="edgeStyle=orthogonalEdgeStyle;rounded=0;orthogonalLoop=1;jettySize=auto;html=1;" edge="1" parent="1" source="E6fFzOeGJ7w1-EUEKwYV-3">
          <mxGeometry relative="1" as="geometry">
            <mxPoint x="350" y="270" as="targetPoint" />
          </mxGeometry>
        </mxCell>
        <mxCell id="E6fFzOeGJ7w1-EUEKwYV-3" value="Sender&lt;div&gt;AuthenticationService&lt;/div&gt;" style="rounded=0;whiteSpace=wrap;html=1;" vertex="1" parent="1">
          <mxGeometry x="290" y="130" width="120" height="60" as="geometry" />
        </mxCell>
        <mxCell id="E6fFzOeGJ7w1-EUEKwYV-28" value="" style="edgeStyle=orthogonalEdgeStyle;rounded=0;orthogonalLoop=1;jettySize=auto;html=1;" edge="1" parent="1" source="E6fFzOeGJ7w1-EUEKwYV-4" target="E6fFzOeGJ7w1-EUEKwYV-5">
          <mxGeometry relative="1" as="geometry" />
        </mxCell>
        <mxCell id="E6fFzOeGJ7w1-EUEKwYV-4" value="user database" style="shape=cylinder3;whiteSpace=wrap;html=1;boundedLbl=1;backgroundOutline=1;size=15;" vertex="1" parent="1">
          <mxGeometry x="320" y="-120" width="60" height="80" as="geometry" />
        </mxCell>
        <mxCell id="E6fFzOeGJ7w1-EUEKwYV-27" value="" style="edgeStyle=orthogonalEdgeStyle;rounded=0;orthogonalLoop=1;jettySize=auto;html=1;" edge="1" parent="1" source="E6fFzOeGJ7w1-EUEKwYV-5" target="E6fFzOeGJ7w1-EUEKwYV-3">
          <mxGeometry relative="1" as="geometry" />
        </mxCell>
        <mxCell id="E6fFzOeGJ7w1-EUEKwYV-5" value="Redis" style="rounded=0;whiteSpace=wrap;html=1;" vertex="1" parent="1">
          <mxGeometry x="290" y="10" width="120" height="60" as="geometry" />
        </mxCell>
        <mxCell id="E6fFzOeGJ7w1-EUEKwYV-20" value="HTTP 403 Error" style="text;html=1;align=center;verticalAlign=middle;whiteSpace=wrap;rounded=0;" vertex="1" parent="1">
          <mxGeometry x="310" y="270" width="80" height="30" as="geometry" />
        </mxCell>
        <mxCell id="E6fFzOeGJ7w1-EUEKwYV-36" style="edgeStyle=orthogonalEdgeStyle;rounded=0;orthogonalLoop=1;jettySize=auto;html=1;entryX=0;entryY=0.5;entryDx=0;entryDy=0;" edge="1" parent="1" source="E6fFzOeGJ7w1-EUEKwYV-21" target="E6fFzOeGJ7w1-EUEKwYV-35">
          <mxGeometry relative="1" as="geometry" />
        </mxCell>
        <mxCell id="E6fFzOeGJ7w1-EUEKwYV-53" value="" style="edgeStyle=orthogonalEdgeStyle;rounded=0;orthogonalLoop=1;jettySize=auto;html=1;" edge="1" parent="1" source="E6fFzOeGJ7w1-EUEKwYV-21" target="E6fFzOeGJ7w1-EUEKwYV-30">
          <mxGeometry relative="1" as="geometry" />
        </mxCell>
        <mxCell id="E6fFzOeGJ7w1-EUEKwYV-21" value="CheckAmount" style="rounded=0;whiteSpace=wrap;html=1;" vertex="1" parent="1">
          <mxGeometry x="480" y="130" width="120" height="60" as="geometry" />
        </mxCell>
        <mxCell id="E6fFzOeGJ7w1-EUEKwYV-26" value="" style="edgeStyle=orthogonalEdgeStyle;rounded=0;orthogonalLoop=1;jettySize=auto;html=1;" edge="1" parent="1" source="E6fFzOeGJ7w1-EUEKwYV-22" target="E6fFzOeGJ7w1-EUEKwYV-23">
          <mxGeometry relative="1" as="geometry" />
        </mxCell>
        <mxCell id="E6fFzOeGJ7w1-EUEKwYV-22" value="Bank Data" style="shape=cylinder3;whiteSpace=wrap;html=1;boundedLbl=1;backgroundOutline=1;size=15;" vertex="1" parent="1">
          <mxGeometry x="685" y="-130" width="110" height="90" as="geometry" />
        </mxCell>
        <mxCell id="E6fFzOeGJ7w1-EUEKwYV-57" style="edgeStyle=orthogonalEdgeStyle;rounded=0;orthogonalLoop=1;jettySize=auto;html=1;entryX=0.5;entryY=0;entryDx=0;entryDy=0;" edge="1" parent="1" source="E6fFzOeGJ7w1-EUEKwYV-23" target="E6fFzOeGJ7w1-EUEKwYV-21">
          <mxGeometry relative="1" as="geometry" />
        </mxCell>
        <mxCell id="E6fFzOeGJ7w1-EUEKwYV-23" value="Redis" style="rounded=0;whiteSpace=wrap;html=1;" vertex="1" parent="1">
          <mxGeometry x="480" y="10" width="120" height="50" as="geometry" />
        </mxCell>
        <mxCell id="E6fFzOeGJ7w1-EUEKwYV-30" value="Insuffient Amount" style="text;html=1;align=center;verticalAlign=middle;whiteSpace=wrap;rounded=0;" vertex="1" parent="1">
          <mxGeometry x="510" y="250" width="60" height="30" as="geometry" />
        </mxCell>
        <mxCell id="E6fFzOeGJ7w1-EUEKwYV-41" style="edgeStyle=orthogonalEdgeStyle;rounded=0;orthogonalLoop=1;jettySize=auto;html=1;exitX=1;exitY=0.5;exitDx=0;exitDy=0;" edge="1" parent="1" source="E6fFzOeGJ7w1-EUEKwYV-31" target="E6fFzOeGJ7w1-EUEKwYV-42">
          <mxGeometry relative="1" as="geometry">
            <mxPoint x="990" y="160.14285714285734" as="targetPoint" />
          </mxGeometry>
        </mxCell>
        <mxCell id="E6fFzOeGJ7w1-EUEKwYV-59" style="edgeStyle=orthogonalEdgeStyle;rounded=0;orthogonalLoop=1;jettySize=auto;html=1;exitX=1;exitY=0.75;exitDx=0;exitDy=0;entryX=0.5;entryY=1;entryDx=0;entryDy=0;" edge="1" parent="1" source="E6fFzOeGJ7w1-EUEKwYV-31" target="E6fFzOeGJ7w1-EUEKwYV-46">
          <mxGeometry relative="1" as="geometry" />
        </mxCell>
        <mxCell id="E6fFzOeGJ7w1-EUEKwYV-61" style="edgeStyle=orthogonalEdgeStyle;rounded=0;orthogonalLoop=1;jettySize=auto;html=1;exitX=1;exitY=0.75;exitDx=0;exitDy=0;" edge="1" parent="1" source="E6fFzOeGJ7w1-EUEKwYV-31" target="E6fFzOeGJ7w1-EUEKwYV-62">
          <mxGeometry relative="1" as="geometry">
            <mxPoint x="1030" y="320" as="targetPoint" />
          </mxGeometry>
        </mxCell>
        <mxCell id="E6fFzOeGJ7w1-EUEKwYV-31" value="Kafka" style="rounded=0;whiteSpace=wrap;html=1;" vertex="1" parent="1">
          <mxGeometry x="840" y="65" width="60" height="190" as="geometry" />
        </mxCell>
        <mxCell id="E6fFzOeGJ7w1-EUEKwYV-38" value="" style="edgeStyle=orthogonalEdgeStyle;rounded=0;orthogonalLoop=1;jettySize=auto;html=1;" edge="1" parent="1" source="E6fFzOeGJ7w1-EUEKwYV-35" target="E6fFzOeGJ7w1-EUEKwYV-31">
          <mxGeometry relative="1" as="geometry" />
        </mxCell>
        <mxCell id="E6fFzOeGJ7w1-EUEKwYV-35" value="TransferService" style="rounded=0;whiteSpace=wrap;html=1;" vertex="1" parent="1">
          <mxGeometry x="660" y="130" width="120" height="60" as="geometry" />
        </mxCell>
        <mxCell id="E6fFzOeGJ7w1-EUEKwYV-42" value="Notify users" style="rounded=0;whiteSpace=wrap;html=1;" vertex="1" parent="1">
          <mxGeometry x="1000" y="20.00285714285735" width="120" height="60" as="geometry" />
        </mxCell>
        <mxCell id="E6fFzOeGJ7w1-EUEKwYV-46" value="Fraud Risk Management" style="rounded=0;whiteSpace=wrap;html=1;" vertex="1" parent="1">
          <mxGeometry x="1000" y="100" width="120" height="60" as="geometry" />
        </mxCell>
        <mxCell id="E6fFzOeGJ7w1-EUEKwYV-55" value="View transactions" style="whiteSpace=wrap;html=1;rounded=0;" vertex="1" parent="1">
          <mxGeometry x="290" y="390" width="120" height="60" as="geometry" />
        </mxCell>
        <mxCell id="E6fFzOeGJ7w1-EUEKwYV-58" style="edgeStyle=orthogonalEdgeStyle;rounded=0;orthogonalLoop=1;jettySize=auto;html=1;exitX=1;exitY=0.25;exitDx=0;exitDy=0;entryX=1;entryY=0.5;entryDx=0;entryDy=0;entryPerimeter=0;" edge="1" parent="1" source="E6fFzOeGJ7w1-EUEKwYV-31" target="E6fFzOeGJ7w1-EUEKwYV-22">
          <mxGeometry relative="1" as="geometry" />
        </mxCell>
        <mxCell id="E6fFzOeGJ7w1-EUEKwYV-70" value="" style="edgeStyle=orthogonalEdgeStyle;rounded=0;orthogonalLoop=1;jettySize=auto;html=1;" edge="1" parent="1" source="E6fFzOeGJ7w1-EUEKwYV-62" target="E6fFzOeGJ7w1-EUEKwYV-67">
          <mxGeometry relative="1" as="geometry" />
        </mxCell>
        <mxCell id="E6fFzOeGJ7w1-EUEKwYV-62" value="Transactions Service&amp;nbsp;" style="rounded=0;whiteSpace=wrap;html=1;" vertex="1" parent="1">
          <mxGeometry x="910" y="290" width="120" height="60" as="geometry" />
        </mxCell>
        <mxCell id="E6fFzOeGJ7w1-EUEKwYV-83" style="edgeStyle=orthogonalEdgeStyle;rounded=0;orthogonalLoop=1;jettySize=auto;html=1;entryX=0.5;entryY=0;entryDx=0;entryDy=0;" edge="1" parent="1" source="E6fFzOeGJ7w1-EUEKwYV-64" target="E6fFzOeGJ7w1-EUEKwYV-76">
          <mxGeometry relative="1" as="geometry" />
        </mxCell>
        <mxCell id="E6fFzOeGJ7w1-EUEKwYV-64" value="" style="rounded=0;whiteSpace=wrap;html=1;" vertex="1" parent="1">
          <mxGeometry x="635" y="275" width="170" height="85" as="geometry" />
        </mxCell>
        <mxCell id="E6fFzOeGJ7w1-EUEKwYV-74" style="edgeStyle=orthogonalEdgeStyle;rounded=0;orthogonalLoop=1;jettySize=auto;html=1;entryX=1;entryY=0.5;entryDx=0;entryDy=0;" edge="1" parent="1" source="E6fFzOeGJ7w1-EUEKwYV-66" target="E6fFzOeGJ7w1-EUEKwYV-73">
          <mxGeometry relative="1" as="geometry" />
        </mxCell>
        <mxCell id="E6fFzOeGJ7w1-EUEKwYV-66" value="" style="shape=cylinder3;whiteSpace=wrap;html=1;boundedLbl=1;backgroundOutline=1;size=15;" vertex="1" parent="1">
          <mxGeometry x="645" y="295" width="40" height="50" as="geometry" />
        </mxCell>
        <mxCell id="E6fFzOeGJ7w1-EUEKwYV-67" value="" style="shape=cylinder3;whiteSpace=wrap;html=1;boundedLbl=1;backgroundOutline=1;size=15;" vertex="1" parent="1">
          <mxGeometry x="700" y="295" width="40" height="50" as="geometry" />
        </mxCell>
        <mxCell id="E6fFzOeGJ7w1-EUEKwYV-68" value="" style="shape=cylinder3;whiteSpace=wrap;html=1;boundedLbl=1;backgroundOutline=1;size=15;" vertex="1" parent="1">
          <mxGeometry x="755" y="295" width="40" height="50" as="geometry" />
        </mxCell>
        <mxCell id="E6fFzOeGJ7w1-EUEKwYV-71" value="MySQL Cluster" style="text;html=1;align=center;verticalAlign=middle;whiteSpace=wrap;rounded=0;" vertex="1" parent="1">
          <mxGeometry x="667.5" y="250" width="105" height="30" as="geometry" />
        </mxCell>
        <mxCell id="E6fFzOeGJ7w1-EUEKwYV-75" style="edgeStyle=orthogonalEdgeStyle;rounded=0;orthogonalLoop=1;jettySize=auto;html=1;exitX=0;exitY=0.5;exitDx=0;exitDy=0;entryX=0.5;entryY=0;entryDx=0;entryDy=0;" edge="1" parent="1" source="E6fFzOeGJ7w1-EUEKwYV-73" target="E6fFzOeGJ7w1-EUEKwYV-55">
          <mxGeometry relative="1" as="geometry" />
        </mxCell>
        <mxCell id="E6fFzOeGJ7w1-EUEKwYV-73" value="Redis" style="rounded=0;whiteSpace=wrap;html=1;" vertex="1" parent="1">
          <mxGeometry x="410" y="290" width="120" height="60" as="geometry" />
        </mxCell>
        <mxCell id="E6fFzOeGJ7w1-EUEKwYV-86" style="edgeStyle=orthogonalEdgeStyle;rounded=0;orthogonalLoop=1;jettySize=auto;html=1;entryX=1;entryY=0.5;entryDx=0;entryDy=0;" edge="1" parent="1" source="E6fFzOeGJ7w1-EUEKwYV-76" target="E6fFzOeGJ7w1-EUEKwYV-78">
          <mxGeometry relative="1" as="geometry" />
        </mxCell>
        <mxCell id="E6fFzOeGJ7w1-EUEKwYV-76" value="Archival Service" style="rounded=0;whiteSpace=wrap;html=1;" vertex="1" parent="1">
          <mxGeometry x="660" y="430" width="120" height="60" as="geometry" />
        </mxCell>
        <mxCell id="E6fFzOeGJ7w1-EUEKwYV-85" style="edgeStyle=orthogonalEdgeStyle;rounded=0;orthogonalLoop=1;jettySize=auto;html=1;entryX=0.5;entryY=1;entryDx=0;entryDy=0;" edge="1" parent="1" source="E6fFzOeGJ7w1-EUEKwYV-78" target="E6fFzOeGJ7w1-EUEKwYV-55">
          <mxGeometry relative="1" as="geometry" />
        </mxCell>
        <mxCell id="E6fFzOeGJ7w1-EUEKwYV-78" value="" style="rounded=0;whiteSpace=wrap;html=1;" vertex="1" parent="1">
          <mxGeometry x="440" y="500" width="170" height="90" as="geometry" />
        </mxCell>
        <mxCell id="E6fFzOeGJ7w1-EUEKwYV-79" value="" style="shape=cylinder3;whiteSpace=wrap;html=1;boundedLbl=1;backgroundOutline=1;size=15;" vertex="1" parent="1">
          <mxGeometry x="450" y="520" width="40" height="50" as="geometry" />
        </mxCell>
        <mxCell id="E6fFzOeGJ7w1-EUEKwYV-80" value="" style="shape=cylinder3;whiteSpace=wrap;html=1;boundedLbl=1;backgroundOutline=1;size=15;" vertex="1" parent="1">
          <mxGeometry x="505" y="520" width="40" height="50" as="geometry" />
        </mxCell>
        <mxCell id="E6fFzOeGJ7w1-EUEKwYV-81" value="" style="shape=cylinder3;whiteSpace=wrap;html=1;boundedLbl=1;backgroundOutline=1;size=15;" vertex="1" parent="1">
          <mxGeometry x="560" y="520" width="40" height="50" as="geometry" />
        </mxCell>
        <mxCell id="E6fFzOeGJ7w1-EUEKwYV-82" value="CassendraDB Cluster" style="text;html=1;align=center;verticalAlign=middle;whiteSpace=wrap;rounded=0;" vertex="1" parent="1">
          <mxGeometry x="472.5" y="470" width="105" height="30" as="geometry" />
        </mxCell>
        <mxCell id="E6fFzOeGJ7w1-EUEKwYV-90" style="edgeStyle=orthogonalEdgeStyle;rounded=0;orthogonalLoop=1;jettySize=auto;html=1;entryX=0;entryY=0.5;entryDx=0;entryDy=0;" edge="1" parent="1" source="E6fFzOeGJ7w1-EUEKwYV-87" target="E6fFzOeGJ7w1-EUEKwYV-3">
          <mxGeometry relative="1" as="geometry" />
        </mxCell>
        <mxCell id="E6fFzOeGJ7w1-EUEKwYV-87" value="Load Balancer" style="rounded=0;whiteSpace=wrap;html=1;" vertex="1" parent="1">
          <mxGeometry x="170" y="95" width="50" height="130" as="geometry" />
        </mxCell>
        <mxCell id="E6fFzOeGJ7w1-EUEKwYV-92" style="edgeStyle=orthogonalEdgeStyle;rounded=0;orthogonalLoop=1;jettySize=auto;html=1;entryX=0;entryY=0.5;entryDx=0;entryDy=0;" edge="1" parent="1" source="E6fFzOeGJ7w1-EUEKwYV-88" target="E6fFzOeGJ7w1-EUEKwYV-55">
          <mxGeometry relative="1" as="geometry" />
        </mxCell>
        <mxCell id="E6fFzOeGJ7w1-EUEKwYV-88" value="Load Balancer" style="rounded=0;whiteSpace=wrap;html=1;" vertex="1" parent="1">
          <mxGeometry x="170" y="355" width="50" height="130" as="geometry" />
        </mxCell>
        <mxCell id="E6fFzOeGJ7w1-EUEKwYV-95" value="Zelle System Design" style="text;html=1;align=center;verticalAlign=middle;whiteSpace=wrap;rounded=0;fillColor=none;fontStyle=1;labelBackgroundColor=none;textShadow=0;labelBorderColor=none;fontSize=30;" vertex="1" parent="1">
          <mxGeometry x="360" y="-240" width="330" height="80" as="geometry" />
        </mxCell>
      </root>
    </mxGraphModel>
  </diagram>
</mxfile>
